# xmcd
#
# Track frame offsets: 
#        182
#        27010
#        48067
#        66022
#        84975
#        104470
#        124022
#        144015
#        163192
#        188195
#        212200
#        233332
#        252992
#        271240
#
# Disc length: 3905 seconds
#
# Revision: 4
# Processed by: cddbd v1.5.2PL0 Copyright (c) Steve Scherf et al.
# Submitted via: ExactAudioCopyFreeDBPlugin 1.0
#
DISCID=b10f3f0e
DTITLE=Patti LaBelle - Flame
DYEAR=1997
DGENRE=Soul
TTITLE0=Someone Like You
TTITLE1=I Like the Way It Feels
TTITLE2=You Are My Solid Ground
TTITLE3=Flame
TTITLE4=Let Me Be Your Lady
TTITLE5=Does He Love You
TTITLE6=Shoe Was On the Other Foot
TTITLE7=Addicted To You
TTITLE8=When You Talk About Love
TTITLE9=Love Is Just A Whisper Away
TTITLE10=If By Chance
TTITLE11=Let Me Be There For You
TTITLE12=You Saved My Life
TTITLE13=Don't Block The Blessings
EXTD=
EXTT0=
EXTT1=
EXTT2=
EXTT3=
EXTT4=
EXTT5=
EXTT6=
EXTT7=
EXTT8=
EXTT9=
EXTT10=
EXTT11=
EXTT12=
EXTT13=
PLAYORDER=
